<mxfile host="Electron" modified="2024-10-14T00:44:36.483Z" agent="Mozilla/5.0 (Windows NT 10.0; Win64; x64) AppleWebKit/537.36 (KHTML, like Gecko) draw.io/24.6.1 Chrome/124.0.6367.207 Electron/30.0.6 Safari/537.36" etag="8HBQ4xWcXMCyChiSi77E" version="24.6.1" type="device">
  <diagram name="Page-1" id="HqznSrjni6mMekY7EWhB">
    <mxGraphModel dx="691" dy="421" grid="1" gridSize="10" guides="1" tooltips="1" connect="1" arrows="1" fold="1" page="1" pageScale="1" pageWidth="850" pageHeight="1100" math="0" shadow="0">
      <root>
        <mxCell id="0" />
        <mxCell id="1" parent="0" />
        <mxCell id="yGTgXKmS1KsHSbo8odJj-112" value="Mobil" style="swimlane;fontStyle=1;align=center;verticalAlign=top;childLayout=stackLayout;horizontal=1;startSize=29.75;horizontalStack=0;resizeParent=1;resizeParentMax=0;resizeLast=0;collapsible=0;marginBottom=0;" vertex="1" parent="1">
          <mxGeometry x="175" y="20" width="99" height="127.75" as="geometry" />
        </mxCell>
        <mxCell id="yGTgXKmS1KsHSbo8odJj-113" value="nama" style="text;strokeColor=none;fillColor=none;align=left;verticalAlign=top;spacingLeft=4;spacingRight=4;overflow=hidden;rotatable=0;points=[[0,0.5],[1,0.5]];portConstraint=eastwest;" vertex="1" parent="yGTgXKmS1KsHSbo8odJj-112">
          <mxGeometry y="29.75" width="99" height="30" as="geometry" />
        </mxCell>
        <mxCell id="yGTgXKmS1KsHSbo8odJj-114" value="merk" style="text;strokeColor=none;fillColor=none;align=left;verticalAlign=top;spacingLeft=4;spacingRight=4;overflow=hidden;rotatable=0;points=[[0,0.5],[1,0.5]];portConstraint=eastwest;" vertex="1" parent="yGTgXKmS1KsHSbo8odJj-112">
          <mxGeometry y="59.75" width="99" height="30" as="geometry" />
        </mxCell>
        <mxCell id="yGTgXKmS1KsHSbo8odJj-115" style="line;strokeWidth=1;fillColor=none;align=left;verticalAlign=middle;spacingTop=-1;spacingLeft=3;spacingRight=3;rotatable=0;labelPosition=right;points=[];portConstraint=eastwest;strokeColor=inherit;" vertex="1" parent="yGTgXKmS1KsHSbo8odJj-112">
          <mxGeometry y="89.75" width="99" height="8" as="geometry" />
        </mxCell>
        <mxCell id="yGTgXKmS1KsHSbo8odJj-116" value="cetak info()" style="text;strokeColor=none;fillColor=none;align=left;verticalAlign=top;spacingLeft=4;spacingRight=4;overflow=hidden;rotatable=0;points=[[0,0.5],[1,0.5]];portConstraint=eastwest;" vertex="1" parent="yGTgXKmS1KsHSbo8odJj-112">
          <mxGeometry y="97.75" width="99" height="30" as="geometry" />
        </mxCell>
        <mxCell id="yGTgXKmS1KsHSbo8odJj-117" value="MobilSport" style="swimlane;fontStyle=1;align=center;verticalAlign=top;childLayout=stackLayout;horizontal=1;startSize=27.428571428571427;horizontalStack=0;resizeParent=1;resizeParentMax=0;resizeLast=0;collapsible=0;marginBottom=0;" vertex="1" parent="1">
          <mxGeometry x="110" y="209" width="96" height="95.42857142857143" as="geometry" />
        </mxCell>
        <mxCell id="yGTgXKmS1KsHSbo8odJj-118" value="speed" style="text;strokeColor=none;fillColor=none;align=left;verticalAlign=top;spacingLeft=4;spacingRight=4;overflow=hidden;rotatable=0;points=[[0,0.5],[1,0.5]];portConstraint=eastwest;" vertex="1" parent="yGTgXKmS1KsHSbo8odJj-117">
          <mxGeometry y="27.428571428571427" width="96" height="27" as="geometry" />
        </mxCell>
        <mxCell id="yGTgXKmS1KsHSbo8odJj-119" value="turbo" style="text;strokeColor=none;fillColor=none;align=left;verticalAlign=top;spacingLeft=4;spacingRight=4;overflow=hidden;rotatable=0;points=[[0,0.5],[1,0.5]];portConstraint=eastwest;" vertex="1" parent="yGTgXKmS1KsHSbo8odJj-117">
          <mxGeometry y="54.42857142857143" width="96" height="27" as="geometry" />
        </mxCell>
        <mxCell id="yGTgXKmS1KsHSbo8odJj-120" style="line;strokeWidth=1;fillColor=none;align=left;verticalAlign=middle;spacingTop=-1;spacingLeft=3;spacingRight=3;rotatable=0;labelPosition=right;points=[];portConstraint=eastwest;strokeColor=inherit;" vertex="1" parent="yGTgXKmS1KsHSbo8odJj-117">
          <mxGeometry y="81.42857142857143" width="96" height="14" as="geometry" />
        </mxCell>
        <mxCell id="yGTgXKmS1KsHSbo8odJj-121" value="CityCar" style="swimlane;fontStyle=1;align=center;verticalAlign=top;childLayout=stackLayout;horizontal=1;startSize=26.444444444444443;horizontalStack=0;resizeParent=1;resizeParentMax=0;resizeLast=0;collapsible=0;marginBottom=0;" vertex="1" parent="1">
          <mxGeometry x="256" y="197" width="71" height="117.44444444444444" as="geometry" />
        </mxCell>
        <mxCell id="yGTgXKmS1KsHSbo8odJj-122" value="model" style="text;strokeColor=none;fillColor=none;align=left;verticalAlign=top;spacingLeft=4;spacingRight=4;overflow=hidden;rotatable=0;points=[[0,0.5],[1,0.5]];portConstraint=eastwest;" vertex="1" parent="yGTgXKmS1KsHSbo8odJj-121">
          <mxGeometry y="26.444444444444443" width="71" height="26" as="geometry" />
        </mxCell>
        <mxCell id="yGTgXKmS1KsHSbo8odJj-123" value="irit" style="text;strokeColor=none;fillColor=none;align=left;verticalAlign=top;spacingLeft=4;spacingRight=4;overflow=hidden;rotatable=0;points=[[0,0.5],[1,0.5]];portConstraint=eastwest;" vertex="1" parent="yGTgXKmS1KsHSbo8odJj-121">
          <mxGeometry y="52.44444444444444" width="71" height="26" as="geometry" />
        </mxCell>
        <mxCell id="yGTgXKmS1KsHSbo8odJj-124" value="sensor" style="text;strokeColor=none;fillColor=none;align=left;verticalAlign=top;spacingLeft=4;spacingRight=4;overflow=hidden;rotatable=0;points=[[0,0.5],[1,0.5]];portConstraint=eastwest;" vertex="1" parent="yGTgXKmS1KsHSbo8odJj-121">
          <mxGeometry y="78.44444444444444" width="71" height="26" as="geometry" />
        </mxCell>
        <mxCell id="yGTgXKmS1KsHSbo8odJj-125" style="line;strokeWidth=1;fillColor=none;align=left;verticalAlign=middle;spacingTop=-1;spacingLeft=3;spacingRight=3;rotatable=0;labelPosition=right;points=[];portConstraint=eastwest;strokeColor=inherit;" vertex="1" parent="yGTgXKmS1KsHSbo8odJj-121">
          <mxGeometry y="104.44444444444444" width="71" height="13" as="geometry" />
        </mxCell>
        <mxCell id="yGTgXKmS1KsHSbo8odJj-126" value="" style="curved=1;startArrow=block;startSize=16;startFill=0;endArrow=none;exitX=0.02;exitY=1;entryX=0.5;entryY=0;rounded=0;" edge="1" parent="1" source="yGTgXKmS1KsHSbo8odJj-112" target="yGTgXKmS1KsHSbo8odJj-117">
          <mxGeometry relative="1" as="geometry">
            <Array as="points">
              <mxPoint x="158" y="172" />
            </Array>
          </mxGeometry>
        </mxCell>
        <mxCell id="yGTgXKmS1KsHSbo8odJj-127" value="" style="curved=1;startArrow=block;startSize=16;startFill=0;endArrow=none;exitX=0.99;exitY=1;entryX=0.5;entryY=0;rounded=0;" edge="1" parent="1" source="yGTgXKmS1KsHSbo8odJj-112" target="yGTgXKmS1KsHSbo8odJj-121">
          <mxGeometry relative="1" as="geometry">
            <Array as="points">
              <mxPoint x="292" y="172" />
            </Array>
          </mxGeometry>
        </mxCell>
      </root>
    </mxGraphModel>
  </diagram>
</mxfile>
